<?xml version="1.0" encoding="UTF-8"?>
<svg xmlns="http://www.w3.org/2000/svg" xmlns:xlink="http://www.w3.org/1999/xlink" width="500" height="423pt" viewBox="0 0 500 423" version="1.1">
<g id="surface1">
<path style="fill-rule:nonzero;fill:rgb(12.156863%,34.901961%,70.980392%);fill-opacity:1;stroke-width:1;stroke-linecap:butt;stroke-linejoin:miter;stroke:rgb(12.156863%,34.901961%,70.980392%);stroke-opacity:1;stroke-miterlimit:4;" d="M 97.961021 571.888211 C 86.483596 568.120496 82.997995 562.441557 82.004713 555.973495 C 80.63781 539.01878 107.579458 510.286537 123.180371 491.799193 C 128.329037 485.280956 148.709553 467.359225 153.407141 462.565196 C 139.077447 460.804497 134.653239 459.504498 131.942216 450.965562 C 127.148944 429.955765 201.467431 372.39549 239.376193 353.306041 C 255.277825 345.355525 283.08062 338.403955 289.919689 340.242199 C 308.286302 350.747097 259.747596 380.934426 245.372338 391.740377 C 229.580058 394.217216 305.734751 345.136578 255.255043 361.361469 C 237.899938 366.803216 221.351306 375.191626 205.77773 385.185648 C 190.199599 395.184232 178.863421 404.234045 165.394875 416.121047 C 155.170445 427.009102 160.337336 432.323131 166.875686 434.612952 C 173.414036 436.902774 182.804656 436.724879 188.7279 435.74874 C 199.804366 434.558215 244.474739 410.172984 226.32683 426.566647 C 199.089021 448.652934 161.45364 462.464845 140.225645 485.039202 C 136.329973 488.62446 120.710834 503.193564 114.372963 516.257407 C 108.035092 529.32581 107.802718 541.778426 124.07797 543.794563 C 156.537347 544.455966 178.202751 514.86618 202.55184 497.519185 C 213.067877 485.572885 265.438466 450.021353 241.326307 489.107968 C 231.306912 502.669003 207.841753 537.308256 236.633275 510.29566 C 244.606873 504.078475 256.694847 491.904105 268.810159 483.5978 C 280.930027 475.286934 296.439814 469.33431 301.009824 476.094301 C 302.221811 477.914299 296.530941 495.087961 297.214392 496.232871 C 299.401436 495.603399 307.926351 488.788671 312.42346 485.486219 C 316.592512 482.425521 326.115266 475.857109 332.813088 472.527288 C 339.51091 469.197468 348.896974 469.895362 350.377785 471.856763 C 352.943005 475.911845 345.734873 489.367968 341.998673 498.892166 C 338.267029 508.416364 335.086703 518.168632 340.472298 525.553535 C 350.951884 536.268258 384.331642 506.518823 398.807139 496.438134 C 413.282636 486.352884 438.939395 470.287642 459.032861 465.288351 C 440.666248 487.693935 389.466639 501.259531 391.858718 532.755981 C 392.100204 535.693521 407.673779 529.704406 415.14618 527.642655 C 403.491058 536.646853 352.96123 570.674879 364.151605 539.360885 C 366.18829 534.005804 367.933369 532.258789 369.55087 527.989321 C 366.147283 524.276343 340.668221 549.012802 322.670672 551.498764 C 300.649873 554.180866 304.837151 530.566511 313.052235 515.167233 C 324.32918 494.034278 319.750057 487.142006 305.320123 501.2869 C 287.386363 519.856349 272.154514 546.508595 247.809981 555.832092 C 250.38887 541.678075 291.4005 487.602707 254.079507 504.48444 C 229.60284 523.437046 210.721361 549.897713 184.121439 565.666465 C 185.123834 543.926844 212.097376 520.061612 218.234768 496.337784 C 182.18955 520.075296 146.413156 558.441211 123.303392 567.12155 C 119.749446 568.713478 104.745413 574.032068 97.961021 571.888211 Z M 433.708715 550.353853 C 421.21067 548.082277 418.335619 525.580903 427.33895 510.847589 C 436.337724 496.114275 456.326394 482.243065 468.519164 477.430791 C 466.436916 480.75605 457.096416 497.979887 454.394505 512.033552 C 451.692595 526.087218 458.276508 533.782296 479.390595 527.770374 C 497.688863 522.374241 506.487158 508.074259 519.604865 496.574976 C 532.722573 485.071132 547.676486 476.016758 564.138547 468.727644 C 571.916222 466.145893 581.908279 465.115017 583.81283 466.6887 C 582.18166 469.320626 574.941633 472.965183 564.530393 476.910791 C 554.274068 480.787979 541.265713 489.386214 531.742959 500.456725 C 519.623091 514.546882 522.584713 527.43283 537.48395 531.246159 C 541.083459 532.810718 583.238731 523.683362 554.788935 535.378785 C 545.507667 538.740535 525.277511 546.312455 510.797457 547.676313 C 496.312848 549.040171 487.573784 544.195966 490.66754 526.976691 C 478.297073 534.959136 454.171245 553.797708 433.708715 550.353853 Z M 575.707099 544.46965 C 580.295334 521.571435 628.136921 554.039462 639.413866 524.066519 C 653.893919 485.650429 598.1972 503.266546 579.867038 495.078838 C 588.255263 476.459213 644.630877 460.571865 642.530403 468.212206 C 624.396164 469.79045 591.139427 496.314977 629.198548 491.443404 C 651.392488 485.919552 672.816405 498.509009 662.33682 521.101611 C 640.630409 545.28614 605.086389 543.19702 575.707099 544.46965 Z M 575.707099 544.46965 " transform="matrix(0.857322,0,0,0.856371,-69.831755,-119.967409)"/>
<path style="fill-rule:nonzero;fill:rgb(63.137255%,20.392157%,13.72549%);fill-opacity:1;stroke-width:1;stroke-linecap:butt;stroke-linejoin:miter;stroke:rgb(63.137255%,20.392157%,13.72549%);stroke-opacity:1;stroke-miterlimit:4;" d="M 383.575289 439.653296 C 388.104293 439.046631 391.876943 454.382049 400.210492 450.244861 C 423.921693 430.977518 439.559057 386.955471 461.074102 357.096562 C 466.641951 359.79691 441.600298 406.172639 429.248057 429.203135 C 419.110197 447.854689 401.363246 478.457105 392.806437 486.11113 C 376.367157 493.477787 379.652279 479.323771 372.152541 478.717105 C 364.297408 478.078509 354.305351 506.304437 348.47779 515.947232 C 335.879506 540.528603 334.088864 551.015256 330.416453 551.840869 C 327.081211 552.588938 332.416687 530.625809 343.916893 505.278123 C 355.417099 479.930437 378.640771 440.31926 383.575289 439.653296 Z M 181.260056 633.786375 C 183.602016 623.678318 189.356675 603.05624 194.833398 594.43976 C 197.512527 589.755205 199.736021 584.888194 202.743207 580.363287 C 212.78994 565.342605 223.497342 550.787186 233.958703 536.058433 C 243.258196 521.694592 255.792691 509.442679 264.755015 494.864452 C 275.084241 481.76868 284.561431 468.047996 294.362122 454.559944 C 300.28081 448.684863 321.777629 407.527374 326.580013 407.05755 C 317.449105 440.328383 291.441507 482.014995 273.55331 505.360228 C 253.090781 533.362647 230.495883 561.716294 211.500495 590.71766 C 203.818503 599.493789 184.176115 634.680409 181.260056 633.786375 Z M 523.568883 490.170774 C 528.284696 416.8828 556.565908 347.079733 574.021252 276.428247 C 579.648334 248.266179 586.182128 218.548674 577.643544 190.258886 C 571.838765 176.182414 538.618479 166.708391 538.158288 188.338538 C 537.716323 198.282385 525.582785 219.980953 520.438676 204.212201 C 523.682791 186.472926 538.682267 164.596464 548.227803 149.858588 C 560.229206 136.261062 584.514507 137.761762 594.123831 153.448408 C 605.728833 170.722421 600.375132 192.557831 598.712067 211.820612 C 588.186918 286.527181 552.80237 350.277273 541.949164 429.67752 C 538.13095 449.866265 536.490667 470.862378 528.398605 489.933581 C 526.977026 493.190419 523.031234 494.941996 523.568883 490.170774 Z M 318.16445 375.69338 C 317.799943 375.328468 317.499224 366.214796 317.499224 355.440775 C 317.499224 330.968877 316.291794 326.142919 304.905496 305.165052 C 303.287995 302.186459 289.359259 291.389631 290.65326 287.608232 C 292.038388 283.544027 309.220352 259.364059 310.723945 259.364059 C 331.605658 268.27703 336.900127 294.299803 337.911634 314.360829 C 339.479016 321.161873 333.624117 371.693035 318.16445 375.69338 Z M 164.128212 355.91516 C 151.949111 340.091672 202.428819 271.538429 216.617267 251.363368 C 232.518899 228.32831 237.139029 222.818142 239.148376 224.483052 C 240.670194 225.746559 239.057249 229.518835 234.491794 235.361985 C 227.698289 246.400567 219.528769 256.412835 212.001693 266.926856 C 202.83889 281.20403 191.985684 294.623662 185.483785 310.419782 C 184.499615 315.560477 183.032473 322.115205 186.946371 326.311691 C 192.249952 331.292737 208.224486 331.251684 217.132133 326.238708 C 236.956775 314.438373 254.708282 299.768918 272.113506 284.666131 C 279.667921 277.865087 283.499804 275.789651 283.499804 278.489999 C 262.750225 310.44715 239.403531 329.340458 217.113908 346.541489 C 197.936266 359.140069 176.179736 371.574438 164.128212 355.91516 Z M 433.120947 264.618789 C 437.021175 259.674234 445.473189 236.1283 449.081811 233.3869 C 454.599541 238.746542 457.825431 244.443728 466.327564 245.360569 C 491.988879 244.366184 499.028427 222.708668 512.191698 205.361674 C 510.843021 223.999544 499.488618 240.717066 489.769941 256.184765 C 483.240704 264.992823 469.917961 275.839827 462.349878 278.503683 C 451.314419 282.403678 432.811116 279.534559 433.120947 264.618789 Z M 379.50192 267.068259 C 370.457582 264.646157 364.739373 260.613882 352.715188 248.188635 C 328.607585 223.274282 312.596601 207.555706 309.844571 206.096059 C 288.270293 194.669758 293.336945 196.658527 281.540577 195.33116 C 274.619494 198.063438 263.766289 199.897119 258.016186 214.265522 C 253.386943 225.35884 250.566567 227.981644 248.493432 223.110071 C 242.319589 210.543421 225.456569 190.340991 212.27963 186.404505 C 200.815874 190.742394 192.473213 200.567645 184.654531 209.599212 C 176.931532 218.781305 157.703771 236.196721 152.222492 238.970051 C 144.868557 243.399168 136.767381 247.572846 127.978199 244.922674 C 118.751607 240.498119 112.17225 231.334271 108.499839 221.814634 C 111.037721 212.56412 116.23195 204.362728 119.015875 195.112213 C 121.257595 187.189066 123.230491 187.385206 127.622804 195.969756 C 131.896652 203.263431 136.840283 212.153594 146.112438 212.363419 C 158.482905 211.820612 167.235637 203.550799 176.147841 196.115721 C 178.977329 193.775724 186.313039 186.235734 192.445875 179.361708 C 214.958758 154.141741 219.478649 151.902094 234.769731 158.411209 C 249.564172 165.513305 251.172561 170.749789 261.916414 183.175036 C 267.721193 171.479613 288.006026 156.842088 297.783935 158.183139 C 307.256569 159.483137 325.732534 169.983474 344.955738 189.752571 C 360.342504 205.580621 373.328077 224.57428 394.264466 232.593217 C 403.563959 236.689352 416.841139 230.923745 426.833196 219.670778 C 430.70153 217.631833 431.207283 210.944824 435.066505 209.362019 C 437.70007 218.840603 430.068198 230.120939 425.940153 239.038472 C 421.005635 249.744072 412.703981 259.0402 402.497776 265.038437 C 396.911701 267.747908 385.712213 268.733169 379.50192 267.068259 Z M 379.50192 267.068259 " transform="matrix(0.857322,0,0,0.856371,-69.831755,-119.967409)"/>
</g>
</svg>
