<?xml version="1.0" encoding="UTF-8"?>
<svg xmlns="http://www.w3.org/2000/svg" xmlns:xlink="http://www.w3.org/1999/xlink" width="400pt" height="339pt" viewBox="0 0 400 339" version="1.1">
<g id="surface1">
<path style="fill-rule:nonzero;fill:rgb(12.156863%,34.901961%,70.980392%);fill-opacity:1;stroke-width:1;stroke-linecap:butt;stroke-linejoin:miter;stroke:rgb(12.156863%,34.901961%,70.980392%);stroke-opacity:1;stroke-miterlimit:4;" d="M 97.964438 571.891198 C 86.482457 568.123322 82.996856 562.44305 82.005852 555.971638 C 80.633254 539.016197 107.578319 510.290412 123.183788 491.798224 C 128.326759 485.281279 148.710692 467.358256 153.403723 462.565882 C 139.079725 460.807161 134.654378 459.503772 131.943355 450.966289 C 127.147805 429.958389 201.467431 372.392987 239.376193 353.308867 C 255.277825 345.357624 283.077203 338.402421 289.923106 340.246518 C 308.285163 350.747622 259.748735 380.936162 245.373477 391.738924 C 229.580058 394.220485 305.733611 345.141341 255.255043 361.362559 C 237.901077 366.803782 221.355862 375.193281 205.778869 385.187828 C 190.201877 395.182375 178.862282 404.232107 165.392597 416.121975 C 155.169306 427.010112 160.340753 432.326118 166.879103 434.614163 C 173.417454 436.902209 182.803517 436.725767 188.726761 435.752494 C 199.804366 434.557247 244.4736 410.174195 226.32797 426.566162 C 199.092438 448.649785 161.457057 462.463433 140.224506 485.036538 C 136.334529 488.627972 120.711973 503.192918 114.372963 516.260959 C 108.039648 529.323308 107.80044 541.77665 124.07797 543.791496 C 156.536208 544.451728 178.201612 514.866503 202.549562 497.518338 C 213.069016 485.571553 265.438466 450.021474 241.329724 489.106071 C 231.305773 502.669286 207.840614 537.3087 236.636692 510.296104 C 244.61029 504.075125 256.69029 491.906366 268.810159 483.596549 C 280.930027 475.286732 296.438675 469.333261 301.012103 476.094947 C 302.225228 477.916277 296.529802 495.088001 297.213253 496.232024 C 299.400297 495.605942 307.926351 488.787339 312.425738 485.486178 C 316.594791 482.424068 326.117544 475.855898 332.815366 472.526279 C 339.513188 469.196661 348.893557 469.896734 350.380063 471.860356 C 352.943005 475.912814 345.732595 489.367887 342.00209 498.890027 C 338.26589 508.412166 335.087842 518.167663 340.475716 525.555432 C 350.949606 536.267127 384.330503 506.516845 398.808278 496.436923 C 413.280358 486.357002 438.938256 470.289459 459.031722 465.286494 C 440.669666 487.694541 389.467778 501.257755 391.859857 532.755376 C 392.099065 535.69227 407.676058 529.704649 415.148458 527.638578 C 403.489919 536.648468 352.960091 570.673184 364.151605 539.363388 C 366.184873 534.00754 367.933369 532.260202 369.55087 527.99146 C 366.145005 524.274809 340.66936 549.010744 322.671811 551.497997 C 300.647595 554.178767 304.839429 530.564089 313.052235 515.168161 C 324.32918 494.035045 319.750057 487.14245 305.317845 501.286214 C 287.388641 519.852393 272.153374 546.506415 247.81112 555.829347 C 250.385453 541.679891 291.403917 487.603474 254.081785 504.484924 C 229.60284 523.438136 210.7225 549.898642 184.119161 565.670219 C 185.121556 543.928095 212.095098 520.062985 218.234768 496.334473 C 182.188411 520.074368 146.409739 558.441816 123.303392 567.121591 C 119.749446 568.715254 104.741996 574.03126 97.964438 571.891198 Z M 433.709854 550.353974 C 421.208392 548.083004 418.337897 525.58389 427.336671 510.848195 C 436.335446 496.112499 456.326394 482.241935 468.520303 477.432486 C 466.435777 480.756413 457.095277 497.979362 454.395645 512.032059 C 451.690317 526.084756 458.279926 533.785566 479.392873 527.769486 C 497.686584 522.373797 506.491714 508.076358 519.602587 496.573523 C 532.719155 485.070688 547.675346 476.015264 564.140826 468.729945 C 571.920779 466.145934 581.904862 465.115744 583.81283 466.686641 C 582.178243 469.316186 574.939355 472.964537 564.528115 476.914545 C 554.276346 480.784871 541.262296 489.384962 531.739542 500.455232 C 519.619673 514.547771 522.586991 527.433678 537.486228 531.247087 C 541.085738 532.806601 583.237592 523.682877 554.788935 535.379229 C 545.511084 538.737306 525.280928 546.312899 510.797457 547.673205 C 496.308291 549.039202 487.571506 544.195603 490.669819 526.972654 C 478.293656 534.958047 454.173523 553.797426 433.709854 550.353974 Z M 575.708238 544.468803 C 580.293056 521.571273 628.134642 554.042167 639.411588 524.064218 C 653.889363 485.651236 598.193783 503.26691 579.865899 495.082309 C 588.255263 476.459213 644.634294 460.573803 642.532682 468.212004 C 624.398442 469.788593 591.142845 496.311707 629.193992 491.445342 C 651.394766 485.918744 672.815266 498.508686 662.335681 521.104557 C 640.630409 545.288401 605.08525 543.199563 575.708238 544.468803 Z M 575.708238 544.468803 " transform="matrix(0.685857,0,0,0.686312,-55.865404,-96.144094)"/>
<path style="fill-rule:nonzero;fill:rgb(63.137255%,20.392157%,13.72549%);fill-opacity:1;stroke-width:1;stroke-linecap:butt;stroke-linejoin:miter;stroke:rgb(63.137255%,20.392157%,13.72549%);stroke-opacity:1;stroke-miterlimit:4;" d="M 383.573011 439.65697 C 388.100875 439.047963 391.876943 454.381282 400.209353 450.24914 C 423.919415 430.977195 439.559057 386.952241 461.070685 357.093818 C 466.640812 359.797354 441.59802 406.172961 429.244639 429.201399 C 419.112475 447.852953 401.365525 478.456984 392.805298 486.112261 C 376.368296 493.477262 379.648862 479.322116 372.15368 478.713109 C 364.299686 478.081335 354.304212 506.306254 348.47779 515.942226 C 335.879506 540.530177 334.091142 551.014206 330.417592 551.839496 C 327.080072 552.590795 332.416687 530.626697 343.915753 505.281756 C 355.41482 479.931123 378.640771 440.317202 383.573011 439.65697 Z M 181.260056 633.78795 C 183.600877 623.67957 189.358953 603.058703 194.837954 594.441536 C 197.514805 589.757304 199.736021 584.885247 202.743207 580.360381 C 212.78994 565.345794 223.497342 550.78654 233.954146 536.056536 C 243.254778 521.690798 255.790413 509.442356 264.755015 494.860335 C 275.086519 481.769527 284.56371 468.046946 294.359844 454.563415 C 300.277392 448.683935 321.777629 407.527575 326.584569 407.055168 C 317.449105 440.328585 291.43809 482.01996 273.554449 505.361439 C 253.090781 533.364383 230.497022 561.714518 211.502773 590.719194 C 203.819642 599.490035 184.176115 634.68154 181.260056 633.78795 Z M 523.566604 490.170411 C 528.282418 416.884657 556.565908 347.076504 574.022391 276.425987 C 579.649473 248.263676 586.182128 218.547544 577.644683 190.260017 C 571.835347 176.184553 538.619618 166.707947 538.158288 188.336237 C 537.714045 198.285251 525.582785 219.981841 520.439815 204.215955 C 523.686208 186.469374 538.682267 164.596343 548.227803 149.860647 C 560.228067 136.257591 584.513368 137.760188 594.121553 153.452082 C 605.728833 170.720564 600.375132 192.553754 598.712067 211.820007 C 588.186918 286.528675 552.806926 350.275214 541.945747 429.679498 C 538.129811 449.867799 536.489528 470.864316 528.396326 489.937053 C 526.978165 493.186988 523.031234 494.940018 523.566604 490.170411 Z M 318.166728 375.694147 C 317.802221 375.329881 317.500363 366.217541 317.500363 355.443238 C 317.500363 330.96912 316.292933 326.142596 304.907775 305.163154 C 303.290273 302.186419 289.359259 291.389348 290.652121 287.604398 C 292.03611 283.546247 309.224908 259.362404 310.722805 259.362404 C 331.607936 268.281228 336.898987 294.297784 337.912773 314.360869 C 339.479016 321.162397 333.624117 371.692913 318.166728 375.694147 Z M 164.128212 355.915645 C 151.945694 340.092843 202.429958 271.542546 216.617267 251.359937 C 232.518899 228.325807 237.13789 222.816285 239.148376 224.48394 C 240.669054 225.747488 239.057249 229.521055 234.489516 235.360693 C 227.694872 246.396813 219.52763 256.414126 211.998275 266.926614 C 202.840029 281.201285 191.984545 294.622209 185.486063 310.416552 C 184.500754 315.561809 183.03703 322.112904 186.949788 326.313346 C 192.246535 331.293544 208.222207 331.253702 217.135551 326.239354 C 236.955636 314.440553 254.708282 299.767465 272.113506 284.667504 C 279.671338 277.865975 283.498665 275.788521 283.498665 278.492057 C 262.750225 310.44501 239.40467 329.341306 217.118464 346.541489 C 197.936266 359.142813 176.179736 371.573389 164.128212 355.915645 Z M 433.123225 264.621493 C 437.018897 259.669753 445.470911 236.129067 449.081811 233.385689 C 454.60068 238.747228 457.824292 244.444575 466.327564 245.360932 C 491.985462 244.364892 499.02501 222.708144 512.192837 205.359978 C 510.843021 224.000149 499.486339 240.716541 489.769941 256.180769 C 483.242982 264.991451 469.915683 275.839746 462.352156 278.503441 C 451.314419 282.402225 432.809977 279.53363 433.123225 264.621493 Z M 379.500781 267.068905 C 370.456443 264.64426 364.738234 260.614568 352.715188 248.183993 C 328.606446 223.271617 312.596601 207.556957 309.840014 206.094202 C 288.271433 194.671049 293.334667 196.657437 281.539438 195.331281 C 274.619494 198.063276 263.769706 199.895989 258.017325 214.267419 C 253.386943 225.360455 250.567706 227.984308 248.494571 223.112251 C 242.320728 210.539385 225.456569 190.3397 212.277351 186.401074 C 200.818152 190.743807 192.474352 200.567604 184.654531 209.600261 C 176.931532 218.780901 157.703771 236.197367 152.219075 238.969203 C 144.866279 243.397311 136.767381 247.569294 127.979338 244.922674 C 118.752746 240.494567 112.168833 231.336693 108.500978 221.814554 C 111.035443 212.559922 116.229672 204.363938 119.014736 195.114999 C 121.258734 187.192214 123.229352 187.385731 127.620526 195.968747 C 131.897791 203.265449 136.841422 212.155815 146.107882 212.360714 C 158.484044 211.820007 167.23222 203.550032 176.145563 196.11673 C 178.97619 193.77746 186.3119 186.236016 192.445875 179.360497 C 214.959897 154.140772 219.476371 151.903951 234.774288 158.409513 C 249.565311 165.512699 251.171422 170.749022 261.912997 183.173906 C 267.722332 171.477554 288.003748 156.844308 297.782796 158.181847 C 307.25429 159.485236 325.730255 169.98634 344.952321 189.753459 C 360.341365 205.581953 373.326938 224.575007 394.269023 232.594549 C 403.563959 236.692541 416.84 230.926894 426.829778 219.6688 C 430.702669 217.631187 431.209562 210.943492 435.065366 209.361212 C 437.696653 218.837818 430.070476 230.118679 425.941292 239.037503 C 421.003357 249.743506 412.70512 259.043671 402.498915 265.042676 C 396.911701 267.746212 385.708796 268.73656 379.500781 267.068905 Z M 379.500781 267.068905 " transform="matrix(0.685857,0,0,0.686312,-55.865404,-96.144094)"/>
</g>
</svg>
